<?xml version="1.0" standalone="no"?>
<!DOCTYPE svg PUBLIC "-//W3C//DTD SVG 20010904//EN"
 "http://www.w3.org/TR/2001/REC-SVG-20010904/DTD/svg10.dtd">
<svg version="1.0" xmlns="http://www.w3.org/2000/svg"
 width="501.000000pt" height="501.000000pt" viewBox="0 0 501.000000 501.000000"
 preserveAspectRatio="xMidYMid meet">

<g transform="translate(0.000000,501.000000) scale(0.100000,-0.100000)"
fill="#000000" stroke="none">
<path d="M1210 4185 c-19 -14 -41 -25 -50 -25 -9 0 -31 -11 -50 -25 -19 -14
-42 -25 -51 -25 -10 0 -31 -11 -47 -25 -17 -14 -37 -25 -45 -25 -18 0 -119
-52 -154 -80 -14 -11 -34 -20 -43 -20 -10 0 -36 -20 -59 -45 -35 -38 -40 -49
-36 -79 4 -37 51 -89 90 -102 11 -4 33 -17 48 -30 16 -13 33 -24 38 -24 6 0
25 -11 43 -25 18 -14 37 -25 43 -25 5 0 18 -9 28 -20 10 -11 27 -23 39 -26 11
-4 35 -17 52 -30 17 -13 35 -24 41 -24 5 0 18 -9 28 -20 10 -11 27 -22 39 -26
11 -4 34 -17 49 -30 16 -13 35 -24 44 -24 8 0 27 -9 41 -21 84 -64 106 -79
118 -79 7 0 26 -11 42 -25 17 -14 33 -25 37 -25 4 0 20 -11 37 -25 16 -14 36
-25 43 -25 7 0 26 -10 42 -22 31 -25 52 -39 98 -64 17 -9 43 -27 58 -40 16
-13 33 -24 39 -24 18 0 98 -70 98 -86 0 -32 -51 -83 -88 -90 -21 -4 -50 -17
-65 -30 -16 -13 -39 -24 -52 -24 -13 0 -28 -6 -32 -14 -11 -18 -47 -36 -72
-36 -12 0 -26 -9 -33 -20 -8 -12 -28 -23 -50 -26 -20 -4 -45 -15 -54 -25 -9
-10 -32 -21 -50 -25 -18 -3 -40 -15 -50 -25 -9 -10 -28 -19 -41 -19 -13 0 -34
-11 -46 -24 -12 -12 -39 -29 -60 -36 -21 -6 -41 -18 -43 -25 -13 -33 -138 -23
-177 14 -13 11 -30 21 -38 21 -8 0 -30 11 -49 25 -19 14 -41 25 -50 25 -9 0
-25 9 -34 19 -10 11 -32 23 -50 26 -28 6 -63 26 -139 77 -16 11 -45 22 -65 25
-20 3 -48 14 -61 25 -31 24 -60 23 -87 -3 -13 -12 -37 -22 -54 -24 -17 -1 -41
-12 -53 -24 -13 -11 -33 -21 -44 -21 -12 0 -35 -12 -52 -26 -17 -14 -41 -26
-53 -26 -26 -1 -90 -57 -119 -105 l-20 -32 25 -38 c14 -20 55 -69 90 -108 36
-38 116 -126 177 -195 62 -69 143 -156 180 -195 36 -38 93 -98 125 -132 33
-34 82 -75 109 -90 l50 -28 560 0 560 0 35 22 c19 13 48 23 64 23 16 0 44 11
62 25 18 14 39 25 47 25 8 0 31 11 51 25 20 14 43 25 51 25 7 0 26 11 42 24
15 13 42 27 60 30 17 4 37 14 43 21 6 8 28 19 48 26 20 7 48 20 61 30 13 11
31 19 40 19 10 0 32 11 50 24 19 14 46 28 61 31 15 3 36 15 46 26 9 10 27 19
39 19 11 0 36 11 55 25 19 14 39 25 45 25 6 0 27 11 47 25 20 14 43 25 50 25
7 0 29 11 48 24 19 13 46 27 59 31 12 4 39 18 58 31 20 13 42 24 49 24 7 0 30
11 50 25 20 14 44 25 54 25 9 0 25 9 35 20 10 11 33 22 51 26 18 3 38 12 44
20 7 7 28 18 48 25 20 6 46 20 57 29 11 10 34 22 50 26 17 3 39 15 50 25 11 9
34 21 50 25 17 3 39 15 50 25 11 9 32 21 47 24 15 4 32 13 38 20 7 8 28 19 47
26 20 6 51 22 71 35 19 13 42 24 52 24 9 0 25 9 34 19 10 11 29 22 44 26 14 3
38 15 52 25 14 10 38 22 53 25 15 4 30 11 32 16 3 4 45 26 93 49 48 23 94 45
102 51 8 5 34 18 58 30 23 12 45 25 48 30 3 5 20 16 37 24 98 44 337 285 389
390 10 22 26 54 35 70 48 92 56 114 64 175 12 96 -2 176 -41 233 -17 26 -37
47 -44 47 -7 0 -27 11 -45 24 -19 14 -55 27 -84 31 -29 4 -65 17 -82 28 -27
20 -43 21 -191 22 -149 0 -165 -2 -191 -21 -20 -15 -50 -23 -113 -28 -61 -5
-90 -12 -105 -25 -11 -10 -36 -21 -56 -25 -21 -4 -48 -15 -62 -26 -14 -11 -31
-20 -39 -20 -7 0 -26 -11 -42 -25 -16 -14 -39 -25 -51 -25 -12 0 -38 -10 -56
-22 -19 -13 -66 -38 -104 -56 -39 -19 -77 -38 -85 -43 -8 -5 -26 -14 -40 -20
-14 -6 -36 -17 -50 -25 -14 -7 -43 -22 -65 -32 -22 -11 -46 -27 -54 -36 -7 -9
-26 -16 -40 -16 -15 0 -42 -11 -61 -25 -19 -14 -39 -25 -45 -25 -6 0 -22 -11
-35 -25 -20 -21 -32 -25 -85 -25 -53 0 -65 4 -85 25 -15 16 -34 25 -53 25 -16
0 -42 9 -58 21 -17 12 -49 23 -72 27 -23 3 -55 16 -70 28 -19 16 -41 24 -66
24 -24 0 -49 9 -71 25 -19 14 -47 25 -66 25 -17 0 -43 9 -57 21 -15 11 -49 24
-77 28 -28 5 -56 15 -63 23 -7 9 -32 19 -55 22 -24 4 -60 18 -80 31 -22 15
-51 25 -72 25 -23 0 -49 9 -70 25 -19 14 -47 25 -64 25 -16 0 -39 9 -51 20
-12 12 -45 24 -72 29 -28 4 -63 17 -78 29 -15 12 -40 22 -56 22 -15 0 -45 11
-65 25 -22 15 -51 25 -72 25 -23 0 -44 8 -58 21 -14 13 -41 23 -71 27 -30 3
-59 14 -76 28 -24 20 -40 24 -96 24 -56 0 -73 -4 -101 -25z"/>
<path d="M61 918 c-31 -42 -31 -43 -31 -166 0 -114 2 -127 25 -166 21 -36 32
-45 63 -49 20 -4 1100 -7 2399 -7 l2363 0 37 34 38 34 3 161 c3 150 2 161 -17
180 l-21 21 -2414 0 -2414 0 -31 -42z"/>
</g>
</svg>
