<?xml version="1.0" standalone="no"?>
<!DOCTYPE svg PUBLIC "-//W3C//DTD SVG 20010904//EN"
 "http://www.w3.org/TR/2001/REC-SVG-20010904/DTD/svg10.dtd">
<svg version="1.0" xmlns="http://www.w3.org/2000/svg"
 width="521.000000pt" height="521.000000pt" viewBox="0 0 521.000000 521.000000"
 preserveAspectRatio="xMidYMid meet">

<g transform="translate(0.000000,521.000000) scale(0.100000,-0.100000)"
fill="#000000" stroke="none">
<path d="M206 4009 c-15 -12 -32 -32 -37 -45 -13 -36 -13 -2818 1 -2844 25
-47 55 -55 206 -55 l143 0 35 40 35 40 1 196 c0 151 3 199 13 208 10 7 573 11
2005 11 2045 1 2018 1 2044 -34 3 -5 4 -91 1 -190 -5 -179 -5 -181 19 -216 35
-52 60 -60 178 -59 149 0 172 6 210 54 l31 39 -3 841 -3 840 -23 48 c-12 27
-22 57 -22 66 0 26 -97 211 -128 245 -83 89 -185 186 -196 186 -7 0 -30 14
-51 30 -21 17 -45 30 -54 30 -9 0 -34 12 -56 25 -25 15 -55 25 -80 25 -22 0
-60 10 -85 23 l-45 22 -926 3 -925 2 -35 -23 c-18 -12 -39 -34 -46 -47 -10
-19 -13 -159 -13 -592 0 -562 0 -567 -21 -578 -30 -17 -1754 -16 -1774 0 -13
11 -15 126 -15 832 l0 820 -39 39 -39 39 -139 0 c-128 0 -143 -2 -167 -21z"/>
<path d="M1380 3760 c-25 -10 -59 -19 -76 -19 -17 -1 -48 -12 -68 -26 -20 -14
-41 -25 -46 -25 -33 0 -230 -212 -230 -247 0 -9 -12 -41 -27 -72 -25 -53 -26
-65 -26 -202 0 -136 1 -148 26 -201 15 -31 27 -62 27 -68 0 -26 118 -160 180
-205 23 -16 54 -40 68 -51 15 -12 54 -27 87 -35 33 -7 65 -20 71 -28 17 -23
226 -22 251 1 10 10 38 20 62 24 24 4 52 15 61 24 9 9 30 20 45 24 35 9 130
91 170 146 17 23 39 54 51 68 11 15 33 65 49 112 26 74 30 100 30 195 0 118
-9 152 -77 291 -31 65 -183 224 -214 224 -9 0 -29 11 -46 25 -18 16 -42 25
-62 25 -18 0 -59 9 -91 20 -72 25 -156 25 -215 0z"/>
</g>
</svg>
