<?xml version="1.0" standalone="no"?>
<!DOCTYPE svg PUBLIC "-//W3C//DTD SVG 20010904//EN"
 "http://www.w3.org/TR/2001/REC-SVG-20010904/DTD/svg10.dtd">
<svg version="1.0" xmlns="http://www.w3.org/2000/svg"
 width="424.000000pt" height="424.000000pt" viewBox="0 0 424.000000 424.000000"
 preserveAspectRatio="xMidYMid meet">

<g transform="translate(0.000000,424.000000) scale(0.100000,-0.100000)"
fill="#000000" stroke="none">
<path d="M1184 4100 c-42 -9 -101 -47 -116 -73 -13 -26 -34 -318 -48 -692 -13
-345 -22 -429 -45 -455 -26 -29 -149 -29 -165 -1 -6 13 -10 197 -11 523 0 277
-4 523 -7 547 l-7 45 -75 13 c-68 11 -101 11 -167 -3 -35 -7 -69 -85 -76 -174
-3 -41 -13 -94 -21 -118 -9 -24 -20 -96 -26 -160 -5 -64 -17 -153 -26 -197
-19 -100 -31 -478 -16 -550 26 -124 95 -277 169 -373 33 -43 91 -102 101 -102
5 0 17 -9 27 -20 10 -11 24 -20 30 -20 7 0 29 -13 50 -30 21 -16 48 -30 61
-30 16 0 34 -15 59 -47 39 -51 38 -39 15 -223 -6 -41 -15 -221 -21 -400 -6
-179 -15 -361 -20 -405 -13 -113 -27 -430 -31 -698 l-3 -229 27 -21 c15 -12
42 -33 60 -47 l32 -25 276 0 275 0 50 36 c28 19 56 48 63 62 11 23 11 97 2
410 -6 210 -15 407 -20 437 -14 82 -28 324 -35 595 -3 132 -10 265 -15 295 -4
30 -11 83 -15 117 -6 61 -5 63 30 102 21 23 49 43 68 47 18 3 45 17 60 30 16
13 33 24 39 24 6 0 20 9 32 20 92 86 140 139 157 171 10 21 22 40 27 43 13 8
66 124 92 201 21 61 24 94 28 250 4 183 -5 300 -32 435 -8 41 -19 125 -24 185
-6 61 -17 137 -26 170 -9 33 -19 100 -22 149 -6 83 -8 90 -42 128 -44 49 -64
60 -121 65 -39 3 -54 -1 -96 -29 -27 -18 -53 -37 -57 -43 -4 -5 -8 -267 -8
-581 0 -483 -2 -573 -14 -583 -8 -7 -39 -15 -68 -18 -79 -8 -103 15 -113 104
-12 104 -13 124 -20 338 -14 436 -30 661 -50 726 -8 24 -71 70 -109 78 -17 4
-45 4 -62 1z"/>
<path d="M3345 4101 c-22 -4 -54 -15 -72 -24 -18 -9 -42 -17 -55 -17 -13 0
-34 -7 -48 -15 -14 -8 -47 -26 -75 -40 -100 -52 -120 -66 -205 -139 -91 -79
-230 -238 -267 -307 -13 -23 -28 -48 -34 -55 -15 -18 -43 -69 -64 -114 -9 -19
-25 -53 -35 -76 -11 -23 -20 -47 -20 -54 0 -7 -8 -27 -19 -44 -10 -17 -24 -53
-30 -81 -7 -27 -19 -64 -27 -82 -25 -55 -37 -240 -24 -381 6 -69 18 -138 25
-153 8 -15 19 -49 25 -75 6 -27 17 -55 25 -64 7 -8 17 -28 21 -45 8 -37 73
-155 84 -155 4 0 13 -14 19 -31 16 -46 43 -78 204 -240 l147 -150 0 -52 c0
-29 -9 -110 -19 -182 -11 -71 -22 -209 -26 -305 -4 -96 -15 -236 -25 -310 -10
-74 -22 -214 -25 -310 -3 -96 -10 -205 -15 -241 -14 -97 5 -146 73 -190 l52
-34 220 -3 c121 -2 234 0 252 3 20 4 53 26 87 58 l56 53 0 1875 0 1875 -47 46
c-42 41 -91 70 -111 67 -4 -1 -25 -5 -47 -8z"/>
</g>
</svg>
