<svg id="Layer_1" enable-background="new 0 0 64 64" viewBox="0 0 64 64" xmlns="http://www.w3.org/2000/svg"><g><path d="m32 62.82c-.32 0-.61-.15-.8-.4-.83-1.12-20.34-27.45-20.34-40.08 0-11.66 9.48-21.14 21.14-21.14s21.14 9.49 21.14 21.14c0 13.16-19.52 39-20.35 40.09-.18.24-.48.39-.79.39zm0-59.64c-10.56 0-19.14 8.59-19.14 19.14 0 10.59 15.44 32.65 19.15 37.8 3.73-5.08 19.14-26.77 19.14-37.8-.01-10.55-8.59-19.14-19.15-19.14z"/></g><g><path d="m32 37.95c-8.72 0-15.81-7.09-15.81-15.81s7.09-15.82 15.81-15.82 15.81 7.09 15.81 15.82c0 8.72-7.09 15.81-15.81 15.81zm0-29.63c-7.62 0-13.81 6.2-13.81 13.82s6.2 13.81 13.81 13.81c7.62 0 13.81-6.2 13.81-13.81 0-7.62-6.19-13.82-13.81-13.82z"/></g><g><g><g><path d="m25.55 19.84h-3.94c-.55 0-1-.45-1-1s.45-1 1-1h3.94c.55 0 1 .45 1 1s-.45 1-1 1z"/></g><g><path d="m23.58 24.88c-.55 0-1-.45-1-1v-5.04c0-.55.45-1 1-1s1 .45 1 1v5.04c0 .55-.45 1-1 1z"/></g></g><g><path d="m27.63 24.88c-.13 0-.26-.03-.39-.08-.51-.22-.74-.8-.53-1.31l2.15-5.04c.16-.37.52-.61.92-.61s.76.24.92.61l2.15 5.04c.22.51-.02 1.1-.53 1.31-.51.22-1.1-.02-1.31-.53l-1.23-2.88-1.23 2.88c-.16.38-.53.61-.92.61z"/></g><g><g><path d="m38.95 24.88c-.29 0-.58-.13-.78-.37l-4.08-5.04c-.35-.43-.28-1.06.15-1.41s1.06-.28 1.41.15l4.08 5.04c.35.43.28 1.06-.15 1.41-.19.14-.41.22-.63.22z"/></g><g><path d="m34.87 24.88c-.22 0-.44-.07-.63-.22-.43-.35-.5-.98-.15-1.41l4.08-5.04c.35-.43.98-.5 1.41-.15s.5.98.15 1.41l-4.08 5.04c-.2.24-.49.37-.78.37z"/></g></g><g><path d="m42.39 24.88c-.55 0-1-.45-1-1v-5.04c0-.55.45-1 1-1s1 .45 1 1v5.04c0 .55-.44 1-1 1z"/></g><g><path d="m31.09 22.92h-2.63c-.55 0-1-.45-1-1s.45-1 1-1h2.63c.55 0 1 .45 1 1s-.44 1-1 1z"/></g></g><g><path d="m53.59 62.82h-43.18c-.55 0-1-.45-1-1s.45-1 1-1h43.18c.55 0 1 .45 1 1s-.45 1-1 1z"/></g></svg>