<?xml version="1.0" standalone="no"?>
<!DOCTYPE svg PUBLIC "-//W3C//DTD SVG 20010904//EN"
 "http://www.w3.org/TR/2001/REC-SVG-20010904/DTD/svg10.dtd">
<svg version="1.0" xmlns="http://www.w3.org/2000/svg"
 width="325.000000pt" height="325.000000pt" viewBox="0 0 325.000000 325.000000"
 preserveAspectRatio="xMidYMid meet">

<g transform="translate(0.000000,325.000000) scale(0.100000,-0.100000)"
fill="#000000" stroke="none">
<path d="M1180 3022 c-19 -9 -54 -35 -77 -58 l-43 -41 0 -126 c0 -95 -3 -129
-14 -140 -9 -8 -45 -16 -89 -20 -53 -4 -89 -13 -123 -31 -27 -14 -55 -26 -63
-26 -42 0 -185 -127 -216 -192 -9 -18 -22 -44 -30 -58 -8 -14 -15 -37 -15 -52
0 -15 -9 -49 -19 -76 -11 -27 -25 -78 -31 -113 -6 -35 -18 -75 -25 -89 -7 -14
-18 -58 -24 -98 -19 -123 -66 -195 -138 -213 -46 -12 -163 -113 -163 -141 0
-9 -10 -28 -22 -44 -22 -28 -23 -36 -26 -291 l-3 -262 27 -58 c18 -38 52 -83
100 -131 l74 -73 0 -153 c0 -174 1 -178 88 -237 43 -30 55 -33 139 -37 114 -5
174 3 204 28 12 11 25 20 30 20 4 0 21 19 38 42 30 41 31 44 31 156 0 62 5
122 10 133 10 19 30 19 825 19 795 0 815 0 825 -19 5 -11 10 -75 10 -142 l0
-123 57 -52 c66 -61 100 -69 253 -62 77 4 93 8 130 33 23 16 53 45 66 64 23
34 24 44 24 187 l0 151 70 63 c38 35 76 80 85 99 9 20 22 47 30 61 12 20 15
76 15 273 l0 248 -31 67 c-40 84 -121 165 -183 181 -71 18 -118 90 -137 213
-6 40 -17 85 -25 100 -7 14 -19 59 -25 100 -6 40 -17 82 -24 94 -7 11 -18 45
-24 75 -11 56 -49 139 -78 171 -51 55 -99 98 -110 98 -7 0 -16 7 -21 15 -4 9
-31 22 -58 29 -28 7 -63 21 -78 31 -19 12 -54 20 -107 23 -44 3 -83 10 -87 16
-4 6 -9 71 -12 145 l-5 134 -50 43 c-27 25 -66 49 -85 54 -20 6 -206 10 -435
10 -357 0 -404 -2 -435 -18z m1204 -802 c24 -27 36 -50 36 -70 0 -17 9 -47 20
-67 11 -21 20 -56 20 -78 1 -22 8 -58 16 -80 22 -57 41 -137 37 -157 -2 -9
-11 -19 -19 -22 -20 -8 -1731 -9 -1744 -1 -17 10 -11 94 10 143 11 26 24 77
29 113 5 37 16 80 25 97 8 16 19 49 22 73 4 24 17 53 30 66 l23 23 729 0 730
0 36 -40z m-1623 -793 c72 -62 94 -104 94 -177 0 -73 -22 -115 -94 -177 -39
-32 -41 -33 -136 -33 l-96 0 -48 40 c-120 102 -119 232 3 342 l41 37 98 1 c98
0 99 0 138 -33z m2000 0 c64 -55 92 -104 97 -170 4 -50 1 -63 -24 -100 -15
-23 -46 -59 -69 -79 l-40 -37 -98 -1 c-99 0 -99 0 -140 35 -56 48 -97 120 -97
171 0 53 40 128 93 176 l42 37 98 1 c98 0 99 0 138 -33z"/>
</g>
</svg>
