<?xml version="1.0" standalone="no"?>
<!DOCTYPE svg PUBLIC "-//W3C//DTD SVG 20010904//EN"
 "http://www.w3.org/TR/2001/REC-SVG-20010904/DTD/svg10.dtd">
<svg version="1.0" xmlns="http://www.w3.org/2000/svg"
 width="410.000000pt" height="410.000000pt" viewBox="0 0 410.000000 410.000000"
 preserveAspectRatio="xMidYMid meet">

<g transform="translate(0.000000,410.000000) scale(0.100000,-0.100000)"
fill="#000000" stroke="none">
<path d="M2020 3954 c-14 -7 -41 -16 -61 -19 -44 -7 -174 -122 -222 -198 -55
-87 -57 -91 -73 -127 -9 -19 -20 -42 -25 -50 -5 -8 -16 -31 -25 -50 -9 -19
-27 -58 -40 -85 -13 -28 -24 -61 -24 -73 0 -13 -9 -40 -20 -61 -10 -21 -23
-65 -29 -97 -5 -33 -19 -79 -30 -104 -11 -25 -21 -62 -21 -84 0 -21 -7 -69
-17 -107 -9 -38 -13 -72 -9 -77 9 -8 1191 -15 1254 -6 49 6 52 18 27 100 -8
27 -20 79 -25 115 -5 37 -19 88 -30 113 -11 26 -20 60 -20 74 0 15 -11 51 -25
80 -14 30 -25 63 -25 74 0 12 -11 44 -24 72 -13 28 -29 62 -35 76 -6 14 -15
32 -21 40 -5 8 -17 31 -25 50 -15 34 -39 75 -79 136 -10 16 -55 64 -98 106
-62 60 -88 79 -116 83 -21 3 -52 13 -70 21 -39 17 -59 17 -92 -2z"/>
<path d="M1350 3833 c-8 -3 -24 -13 -35 -23 -11 -10 -33 -20 -49 -24 -16 -4
-41 -16 -54 -27 -14 -10 -32 -19 -40 -19 -8 0 -30 -11 -48 -25 -18 -14 -37
-25 -42 -25 -4 0 -19 -11 -32 -25 -13 -14 -29 -25 -35 -25 -55 0 -431 -370
-520 -511 -5 -9 -26 -40 -45 -69 -38 -58 -66 -109 -100 -179 -15 -32 -18 -47
-10 -55 7 -7 126 -12 365 -13 415 -2 389 -8 411 103 7 38 13 85 14 105 0 19
11 68 25 107 14 39 25 83 25 97 0 15 9 47 20 73 11 26 24 67 29 92 12 56 72
205 117 290 7 14 22 44 33 66 11 23 24 45 30 48 6 4 11 16 11 27 0 14 -7 19
-27 18 -16 0 -35 -3 -43 -6z"/>
<path d="M2710 3827 c0 -9 5 -19 11 -23 6 -3 19 -25 30 -48 11 -22 26 -52 33
-66 30 -54 66 -138 66 -151 0 -8 11 -35 25 -61 14 -26 25 -56 25 -67 0 -11 11
-49 24 -83 13 -35 29 -85 34 -113 6 -27 17 -70 25 -95 8 -25 20 -74 26 -110
20 -120 37 -181 50 -190 16 -10 666 -14 717 -4 24 4 34 12 34 25 0 10 -4 20
-8 23 -5 3 -26 38 -47 78 -115 221 -273 411 -498 599 -64 55 -122 99 -128 99
-6 0 -23 9 -37 21 -53 40 -117 79 -133 79 -9 0 -24 9 -34 20 -10 11 -23 20
-30 20 -7 0 -33 11 -59 25 -61 33 -126 44 -126 22z"/>
<path d="M237 2520 c-21 -17 -26 -32 -32 -88 -3 -37 -15 -104 -25 -149 -25
-105 -28 -353 -5 -429 8 -27 19 -94 25 -149 17 -156 -21 -145 450 -142 290 1
392 5 401 14 10 10 10 24 1 65 -18 79 -18 750 -1 817 9 38 10 54 2 62 -8 8
-132 13 -401 15 -377 3 -391 3 -415 -16z"/>
<path d="M1402 2532 c-46 -7 -47 -20 -47 -482 0 -476 0 -475 58 -484 17 -3
325 -4 684 -3 519 2 655 5 665 15 18 18 19 925 1 943 -9 9 -173 12 -675 13
-365 1 -673 0 -686 -2z"/>
<path d="M3100 2521 c-17 -14 -18 -23 -9 -76 12 -68 7 -811 -5 -836 -4 -10 -1
-22 9 -32 13 -14 62 -16 410 -14 277 1 397 5 405 13 6 6 16 44 21 83 4 39 16
97 26 129 25 82 25 441 0 522 -9 30 -21 88 -26 129 -5 40 -14 78 -19 83 -5 5
-177 10 -402 12 -345 2 -394 1 -410 -13z"/>
<path d="M350 1278 c-11 -4 -20 -9 -20 -12 0 -10 41 -94 64 -131 14 -22 33
-53 42 -70 63 -116 141 -212 307 -377 98 -98 184 -178 191 -178 7 0 21 -9 31
-20 10 -11 24 -20 31 -20 7 0 29 -13 47 -30 19 -16 38 -30 42 -30 4 0 20 -11
37 -25 16 -14 38 -25 47 -25 10 0 29 -8 42 -19 14 -10 41 -23 62 -29 20 -6 49
-20 63 -31 15 -12 40 -21 55 -21 24 0 29 4 29 25 0 14 -4 25 -9 25 -5 0 -18
20 -30 44 -11 25 -25 47 -30 50 -5 4 -13 21 -16 39 -4 17 -16 48 -26 67 -29
55 -70 161 -80 207 -4 24 -17 63 -29 87 -11 25 -20 60 -20 78 -1 18 -8 51 -16
73 -22 56 -31 97 -44 198 -19 138 15 127 -398 130 -194 1 -361 -1 -372 -5z"/>
<path d="M1438 1277 c-21 -8 -21 -7 1 -92 6 -22 11 -59 11 -83 0 -23 11 -69
25 -102 14 -33 25 -74 25 -92 0 -18 11 -57 25 -86 14 -30 25 -64 25 -77 0 -12
11 -43 25 -69 14 -26 25 -53 25 -60 0 -7 11 -29 23 -48 13 -19 27 -46 30 -59
4 -14 16 -36 27 -49 11 -13 20 -28 20 -33 0 -24 76 -121 147 -186 56 -52 86
-72 112 -77 20 -3 52 -12 72 -21 33 -13 39 -13 67 1 17 9 42 16 56 16 45 0 75
19 153 98 84 83 123 131 123 148 0 5 11 25 24 43 14 19 28 46 31 62 4 15 13
33 21 39 7 7 19 31 25 54 6 22 17 48 24 56 7 8 20 40 28 70 8 30 22 75 30 100
52 157 67 210 67 240 0 19 9 64 20 98 27 86 26 112 -2 112 -13 0 -297 1 -631
2 -335 2 -617 0 -629 -5z"/>
<path d="M3059 1279 c-12 -7 -45 -138 -58 -230 -6 -41 -19 -95 -30 -120 -11
-24 -21 -60 -21 -79 0 -19 -9 -53 -19 -76 -10 -23 -24 -64 -30 -92 -6 -28 -20
-66 -31 -84 -11 -18 -20 -41 -20 -50 0 -10 -12 -42 -27 -70 -15 -29 -31 -62
-37 -73 -31 -60 -43 -82 -58 -104 -10 -13 -15 -28 -12 -33 8 -13 74 1 110 23
17 11 38 19 47 19 8 0 29 11 45 25 17 14 36 25 44 25 8 0 43 19 78 43 34 23
78 51 97 62 103 62 363 312 458 440 60 80 131 192 164 258 19 37 38 70 43 73
15 10 8 44 -9 45 -109 4 -727 3 -734 -2z"/>
</g>
</svg>
