<svg id="Layer_1" enable-background="new 0 0 64 64" viewBox="0 0 64 64" xmlns="http://www.w3.org/2000/svg"><path d="m49.3 58.86h-38.38c-1.91 0-3.46-1.55-3.46-3.46v-50.29c0-1.91 1.55-3.46 3.46-3.46h38.38c1.91 0 3.46 1.55 3.46 3.46v50.29c0 1.9-1.55 3.46-3.46 3.46zm-38.38-55.22c-.81 0-1.46.66-1.46 1.46v50.3c0 .81.66 1.46 1.46 1.46h38.38c.8 0 1.46-.66 1.46-1.46v-50.29c0-.81-.66-1.46-1.46-1.46h-38.38z"/><path d="m53.08 62.35h-38.38c-1.91 0-3.46-1.55-3.46-3.46v-1.04c0-.55.45-1 1-1s1 .45 1 1v1.04c0 .8.65 1.46 1.46 1.46h38.38c.8 0 1.46-.66 1.46-1.46v-50.29c0-.8-.66-1.46-1.46-1.46h-1.32c-.55 0-1-.45-1-1s.45-1 1-1h1.32c1.91 0 3.46 1.55 3.46 3.46v50.29c0 1.91-1.55 3.46-3.46 3.46z"/><path d="m29.67 45.92c-9.02 0-16.37-7.34-16.37-16.37s7.34-16.37 16.37-16.37c9.02 0 16.37 7.34 16.37 16.37s-7.35 16.37-16.37 16.37zm0-30.74c-7.92 0-14.37 6.45-14.37 14.37s6.45 14.37 14.37 14.37 14.37-6.45 14.37-14.37-6.45-14.37-14.37-14.37z"/><path d="m29.82 45.92c-5.64 0-10.06-7.19-10.06-16.37s4.42-16.37 10.06-16.37 10.06 7.19 10.06 16.37-4.41 16.37-10.06 16.37zm0-30.74c-4.37 0-8.06 6.58-8.06 14.37s3.69 14.37 8.06 14.37 8.06-6.58 8.06-14.37-3.68-14.37-8.06-14.37z"/><path d="m45.03 30.51h-30.73c-.55 0-1-.45-1-1s.45-1 1-1h30.73c.55 0 1 .45 1 1s-.45 1-1 1z"/><path d="m29.82 45.92c-.55 0-1-.45-1-1v-30.74c0-.55.45-1 1-1s1 .45 1 1v30.73c0 .56-.44 1.01-1 1.01z"/><path d="m42.89 22.72h-26.45c-.55 0-1-.45-1-1s.45-1 1-1h26.45c.55 0 1 .45 1 1s-.44 1-1 1z"/><path d="m42.94 38.3h-26.54c-.55 0-1-.45-1-1s.45-1 1-1h26.54c.55 0 1 .45 1 1s-.45 1-1 1z"/><path d="m39.61 53.25h-19.57c-.55 0-1-.45-1-1s.45-1 1-1h19.57c.55 0 1 .45 1 1s-.45 1-1 1z"/></svg>