<?xml version="1.0" standalone="no"?>
<!DOCTYPE svg PUBLIC "-//W3C//DTD SVG 20010904//EN"
 "http://www.w3.org/TR/2001/REC-SVG-20010904/DTD/svg10.dtd">
<svg version="1.0" xmlns="http://www.w3.org/2000/svg"
 width="294.000000pt" height="294.000000pt" viewBox="0 0 294.000000 294.000000"
 preserveAspectRatio="xMidYMid meet">

<g transform="translate(0.000000,294.000000) scale(0.100000,-0.100000)"
fill="#000000" stroke="none">
<path d="M1397 2683 c-2 -4 -5 -442 -6 -973 -1 -531 -3 -966 -5 -967 -4 -4
-237 434 -243 457 -4 16 5 32 33 61 l38 39 -100 0 c-92 0 -102 -2 -121 -22
-11 -13 -23 -28 -27 -35 -3 -6 61 -134 142 -285 81 -150 209 -386 283 -525
l134 -251 5 980 c4 723 8 977 16 967 16 -20 244 -454 244 -464 0 -5 -17 -26
-37 -47 l-37 -38 100 0 c97 0 101 1 127 28 l28 29 -132 244 c-73 134 -201 371
-285 527 -83 156 -154 280 -157 275z"/>
<path d="M745 2310 l-50 -50 98 -97 97 -98 45 45 c25 24 45 49 45 55 0 6 -42
52 -93 103 l-93 92 -49 -50z"/>
<path d="M2037 2262 c-48 -48 -87 -92 -87 -98 0 -5 20 -30 45 -54 l45 -44 97
97 97 97 -44 45 c-24 25 -49 45 -55 45 -6 0 -50 -39 -98 -88z"/>
<path d="M840 1714 c-228 -123 -463 -249 -522 -279 -60 -31 -108 -57 -108 -60
0 -3 248 -5 550 -5 l550 0 0 70 0 70 -277 0 -278 0 240 129 240 129 30 -29
c17 -16 34 -29 38 -29 4 0 7 42 7 93 0 85 -2 96 -23 115 -13 12 -25 22 -28 21
-2 0 -191 -101 -419 -225z"/>
<path d="M1617 1503 c-4 -3 -7 -35 -7 -70 l0 -63 275 0 c151 0 275 -3 275 -7
0 -8 -453 -253 -468 -253 -4 0 -21 14 -37 30 -16 17 -32 30 -37 30 -4 0 -8
-42 -8 -93 0 -89 1 -95 28 -119 l27 -26 190 102 c105 56 235 126 290 155 55
30 172 93 260 141 88 48 193 104 233 124 39 20 72 41 72 46 0 11 -1082 14
-1093 3z"/>
<path d="M785 770 l-89 -90 49 -50 49 -50 93 92 c51 51 93 97 93 103 0 16 -74
85 -91 85 -8 0 -55 -40 -104 -90z"/>
<path d="M1987 822 c-20 -21 -37 -42 -37 -47 0 -13 172 -185 185 -185 13 0 85
72 85 85 0 17 -165 185 -181 185 -8 0 -32 -17 -52 -38z"/>
</g>
</svg>
